<?xml version="1.0" encoding="UTF-8" standalone="no"?>
<!-- Created with Inkscape (http://www.inkscape.org/) -->

<svg
   xmlns:dc="http://purl.org/dc/elements/1.1/"
   xmlns:cc="http://creativecommons.org/ns#"
   xmlns:rdf="http://www.w3.org/1999/02/22-rdf-syntax-ns#"
   xmlns:svg="http://www.w3.org/2000/svg"
   xmlns="http://www.w3.org/2000/svg"
   xmlns:sodipodi="http://sodipodi.sourceforge.net/DTD/sodipodi-0.dtd"
   xmlns:inkscape="http://www.inkscape.org/namespaces/inkscape"
   width="2078.8945"
   height="2073.9294"
   viewBox="0 0 550.04083 548.72718"
   version="1.1"
   id="svg8"
   inkscape:version="0.92.5 (2060ec1f9f, 2020-04-08)"
   sodipodi:docname="logoBrandRed.svg">
  <defs
     id="defs2" />
  <sodipodi:namedview
     id="base"
     pagecolor="#ffffff"
     bordercolor="#666666"
     borderopacity="1.0"
     inkscape:pageopacity="0.0"
     inkscape:pageshadow="2"
     inkscape:zoom="0.1767767"
     inkscape:cx="676.35643"
     inkscape:cy="1003.0494"
     inkscape:document-units="px"
     inkscape:current-layer="layer1"
     showgrid="false"
     inkscape:showpageshadow="false"
     showborder="false"
     units="px"
     inkscape:snap-intersection-paths="true"
     inkscape:snap-midpoints="false"
     inkscape:snap-smooth-nodes="true"
     inkscape:object-paths="true"
     inkscape:window-width="1848"
     inkscape:window-height="1016"
     inkscape:window-x="72"
     inkscape:window-y="27"
     inkscape:window-maximized="1"
     fit-margin-top="0"
     fit-margin-left="0"
     fit-margin-right="0"
     fit-margin-bottom="0"
     showguides="false" />
  <metadata
     id="metadata5">
    <rdf:RDF>
      <cc:Work
         rdf:about="">
        <dc:format>image/svg+xml</dc:format>
        <dc:type
           rdf:resource="http://purl.org/dc/dcmitype/StillImage" />
        <dc:title></dc:title>
      </cc:Work>
    </rdf:RDF>
  </metadata>
  <g
     inkscape:label="Layer 1"
     inkscape:groupmode="layer"
     id="layer1"
     transform="translate(-10.583333,150.53808)">
    <g
       id="g4943"
       inkscape:export-xdpi="96"
       inkscape:export-ydpi="96">
      <g
         style="fill:#ed1a00;fill-opacity:1"
         id="g250"
         transform="translate(79.502619,193.93021)">
        <path
           inkscape:connector-curvature="0"
           d="M 89.831238,188.32396 H 202.08443 V 288.86562 H 89.831238 Z m 0,2e-5 L -22.421959,29.573982 V 130.11564 l 112.253197,158.75 z"
           style="opacity:1;fill:#ed1a00;fill-opacity:1;stroke-width:0.31464437"
           transform="matrix(-1,0,0.70710678,0.70710678,0,0)"
           id="rect248" />
      </g>
      <path
         inkscape:connector-curvature="0"
         d="m 1710.1934,-928.48242 v 424.26367 H 1285.9297 1017.2285 748.52734 324.26367 -100 l 268.70117,268.70117 h 424.26367 424.26366 268.7012 268.6992 424.2656 v -424.26367 z"
         style="opacity:1;fill:#ed1a00;fill-opacity:1;stroke-width:0.99999994"
         transform="matrix(0.26458333,0,0,0.26458333,37.041666,95.122895)"
         id="rect254" />
      <g
         style="fill:#ed1a00;fill-opacity:1"
         id="g262"
         transform="translate(262.84952,10.583252)">
        <path
           inkscape:connector-curvature="0"
           d="M 89.831238,188.32396 H 202.08443 V 288.86562 H 89.831238 Z m 0,2e-5 L -22.421959,29.573982 V 130.11564 l 112.253197,158.75 z"
           style="opacity:1;fill:#ed1a00;fill-opacity:1;stroke-width:0.31464437"
           transform="matrix(-1,0,0.70710678,0.70710678,0,0)"
           id="rect260" />
      </g>
      <g
         style="fill:#ed1a00;fill-opacity:1"
         transform="translate(262.84952,193.93024)"
         id="g268">
        <path
           inkscape:connector-curvature="0"
           d="M 89.831238,188.32396 H 202.08443 V 288.86562 H 89.831238 Z m 0,2e-5 L -22.421959,29.573982 V 130.11564 l 112.253197,158.75 z"
           style="opacity:1;fill:#ed1a00;fill-opacity:1;stroke-width:0.31464437"
           transform="matrix(-1,0,0.70710678,0.70710678,0,0)"
           id="rect266" />
      </g>
      <g
         style="fill:#ed1a00;fill-opacity:1"
         transform="translate(446.19642,10.583252)"
         id="g280">
        <path
           inkscape:connector-curvature="0"
           d="M 89.831238,188.32396 H 202.08443 V 288.86562 H 89.831238 Z m 0,2e-5 L -22.421959,29.573982 V 130.11564 l 112.253197,158.75 z"
           style="opacity:1;fill:#ed1a00;fill-opacity:1;stroke-width:0.31464437"
           transform="matrix(-1,0,0.70710678,0.70710678,0,0)"
           id="rect278" />
      </g>
      <g
         style="fill:#ed1a00;fill-opacity:1"
         id="g286"
         transform="translate(446.19642,193.93024)">
        <path
           inkscape:connector-curvature="0"
           d="M 89.831238,188.32396 H 202.08443 V 288.86562 H 89.831238 Z m 0,2e-5 L -22.421959,29.573982 V 130.11564 l 112.253197,158.75 z"
           style="opacity:1;fill:#ed1a00;fill-opacity:1;stroke-width:0.31464437"
           transform="matrix(-1,0,0.70710678,0.70710678,0,0)"
           id="rect284" />
      </g>
      <g
         transform="translate(79.502619,10.583246)"
         id="g4857"
         style="fill:#ed1a00;fill-opacity:1">
        <path
           id="path4855"
           transform="matrix(-1,0,0.70710678,0.70710678,0,0)"
           style="opacity:1;fill:#ed1a00;fill-opacity:1;stroke-width:0.31464437"
           d="M 89.831238,188.32396 H 202.08443 V 288.86562 H 89.831238 Z m 0,2e-5 L -22.421959,29.573982 V 130.11564 l 112.253197,158.75 z"
           inkscape:connector-curvature="0" />
      </g>
    </g>
  </g>
</svg>
