<?xml version="1.0" encoding="UTF-8" standalone="no"?>
<!-- Created with Inkscape (http://www.inkscape.org/) -->

<svg
   xmlns:dc="http://purl.org/dc/elements/1.1/"
   xmlns:cc="http://creativecommons.org/ns#"
   xmlns:rdf="http://www.w3.org/1999/02/22-rdf-syntax-ns#"
   xmlns:svg="http://www.w3.org/2000/svg"
   xmlns="http://www.w3.org/2000/svg"
   xmlns:xlink="http://www.w3.org/1999/xlink"
   xmlns:sodipodi="http://sodipodi.sourceforge.net/DTD/sodipodi-0.dtd"
   xmlns:inkscape="http://www.inkscape.org/namespaces/inkscape"
   width="158.75mm"
   height="158.75mm"
   viewBox="0 0 158.75 158.75"
   version="1.1"
   id="svg8"
   inkscape:version="0.92.5 (2060ec1f9f, 2020-04-08)"
   sodipodi:docname="modernRingUsable.svg">
  <defs
     id="defs2">
    <linearGradient
       inkscape:collect="always"
       id="linearGradient832">
      <stop
         style="stop-color:#000000;stop-opacity:1"
         offset="0"
         id="stop828" />
      <stop
         style="stop-color:#000000;stop-opacity:0"
         offset="1"
         id="stop830" />
    </linearGradient>
    <linearGradient
       inkscape:collect="always"
       xlink:href="#linearGradient832"
       id="linearGradient834"
       x1="61.912498"
       y1="136.92706"
       x2="153.19376"
       y2="131.37082"
       gradientUnits="userSpaceOnUse" />
  </defs>
  <sodipodi:namedview
     id="base"
     pagecolor="#ffffff"
     bordercolor="#666666"
     borderopacity="1.0"
     inkscape:pageopacity="0.0"
     inkscape:pageshadow="2"
     inkscape:zoom="1"
     inkscape:cx="-62.999974"
     inkscape:cy="261.62447"
     inkscape:document-units="px"
     inkscape:current-layer="layer6"
     showgrid="false"
     inkscape:showpageshadow="false"
     showborder="false"
     units="mm"
     inkscape:snap-intersection-paths="true"
     inkscape:snap-midpoints="false"
     inkscape:snap-smooth-nodes="true"
     inkscape:object-paths="true"
     inkscape:window-width="1848"
     inkscape:window-height="1016"
     inkscape:window-x="72"
     inkscape:window-y="27"
     inkscape:window-maximized="1"
     width="1e-05mm"
     inkscape:pagecheckerboard="false"
     fit-margin-top="0"
     fit-margin-left="0"
     fit-margin-right="0"
     fit-margin-bottom="0" />
  <metadata
     id="metadata5">
    <rdf:RDF>
      <cc:Work
         rdf:about="">
        <dc:format>image/svg+xml</dc:format>
        <dc:type
           rdf:resource="http://purl.org/dc/dcmitype/StillImage" />
        <dc:title></dc:title>
      </cc:Work>
    </rdf:RDF>
  </metadata>
  <g
     inkscape:label="outer"
     inkscape:groupmode="layer"
     id="layer1"
     style="display:inline"
     transform="translate(-16.933327,-27.65416)">
    <ellipse
       style="fill:#000000;fill-opacity:0;stroke-width:0.26458332"
       id="path846"
       cx="96.308327"
       cy="107.02916"
       rx="9.921875"
       ry="17.330208" />
    <circle
       r="79.375"
       cy="107.02916"
       cx="96.308327"
       id="circle857"
       style="display:inline;opacity:1;fill:#1a1a1a;fill-opacity:0.99516913;stroke-width:0.40088382" />
  </g>
  <g
     inkscape:groupmode="layer"
     id="layer3"
     inkscape:label="segments"
     style="display:inline"
     transform="translate(-16.933327,-27.65416)">
    <circle
       style="display:inline;opacity:1;fill:#ffffff;fill-opacity:0.99516913;stroke-width:0.38418034"
       id="circle879"
       cx="96.308327"
       cy="107.02916"
       r="76.067711" />
    <path
       style="opacity:1;fill:#ffffff;fill-opacity:0.99516913;stroke-width:0.25862876"
       d="M 31.627975,66.994817 C 37.446437,57.322915 45.637261,49.274952 55.85162,42.612147 l 26.518652,45.931847 -4.844186,4.950096 z"
       id="rect4631"
       inkscape:connector-curvature="0"
       sodipodi:nodetypes="ccccc" />
    <path
       sodipodi:nodetypes="ccccc"
       inkscape:connector-curvature="0"
       id="path6866"
       d="m 20.274849,104.74739 c 0.202985,-11.285344 3.272464,-22.350494 8.786958,-33.227834 l 45.931753,26.51882 -1.72015,6.708994 z"
       style="opacity:1;fill:#ffffff;fill-opacity:0.99516913;stroke-width:0.25862876" />
    <path
       style="opacity:1;fill:#ffffff;fill-opacity:0.99516913;stroke-width:0.25862876"
       d="m 29.304396,143.20903 c -5.466885,-9.8749 -8.341212,-20.99233 -9.004191,-33.16963 l 53.037475,9e-5 1.864806,6.67024 z"
       id="path6868"
       inkscape:connector-curvature="0"
       sodipodi:nodetypes="ccccc" />
    <path
       sodipodi:nodetypes="ccccc"
       inkscape:connector-curvature="0"
       id="path6870"
       d="M 56.345026,171.82239 C 46.673113,166.00392 38.625159,157.81311 31.962351,147.59874 l 45.931846,-26.51865 4.95009,4.84419 z"
       style="opacity:1;fill:#ffffff;fill-opacity:0.99516913;stroke-width:0.25862876" />
    <path
       style="opacity:1;fill:#ffffff;fill-opacity:0.99516913;stroke-width:0.25862876"
       d="m 93.662294,183.05083 c -11.285358,-0.20299 -22.350495,-3.27246 -33.227841,-8.78696 l 26.518819,-45.93175 6.708999,1.72015 z"
       id="path6872"
       inkscape:connector-curvature="0"
       sodipodi:nodetypes="ccccc" />
    <path
       sodipodi:nodetypes="ccccc"
       inkscape:connector-curvature="0"
       id="path6874"
       d="m 131.8667,174.27422 c -9.8749,5.46689 -20.99233,8.34121 -33.169637,9.00419 l 9.6e-5,-53.03747 6.670231,-1.86483 z"
       style="opacity:1;fill:#ffffff;fill-opacity:0.99516913;stroke-width:0.25862876" />
    <path
       style="opacity:1;fill:#ffffff;fill-opacity:0.99516913;stroke-width:0.25862876"
       d="m 160.65431,147.59874 c -5.81847,9.67191 -14.00929,17.71986 -24.22365,24.38267 l -26.51866,-45.93185 4.84418,-4.9501 z"
       id="path6876"
       inkscape:connector-curvature="0"
       sodipodi:nodetypes="ccccc" />
    <path
       sodipodi:nodetypes="ccccc"
       inkscape:connector-curvature="0"
       id="path6878"
       d="m 172.31645,110.0394 c -0.203,11.28536 -3.27248,22.3505 -8.78697,33.22785 l -45.93174,-26.51883 1.72012,-6.709 z"
       style="opacity:1;fill:#ffffff;fill-opacity:0.99516913;stroke-width:0.25862876" />
    <path
       style="opacity:1;fill:#ffffff;fill-opacity:0.99516913;stroke-width:0.25862876"
       d="m 163.61567,71.588816 c 5.46688,9.874903 8.3412,20.992343 9.00418,33.169654 l -53.03746,-1.2e-4 -1.86483,-6.670221 z"
       id="path6880"
       inkscape:connector-curvature="0"
       sodipodi:nodetypes="ccccc" />
    <path
       sodipodi:nodetypes="ccccc"
       inkscape:connector-curvature="0"
       id="path6882"
       d="m 136.76504,42.612147 c 9.6719,5.818478 17.71985,14.009305 24.38266,24.223678 l -45.93184,26.518629 -4.9501,-4.84417 z"
       style="opacity:1;fill:#ffffff;fill-opacity:0.99516913;stroke-width:0.25862876" />
    <path
       style="opacity:1;fill:#ffffff;fill-opacity:0.99516913;stroke-width:0.25862876"
       d="m 98.96074,31.168293 c 11.28535,0.202999 22.3505,3.272487 33.22784,8.78699 l -26.51883,45.931731 -6.708989,-1.72013 z"
       id="path6886"
       inkscape:connector-curvature="0"
       sodipodi:nodetypes="ccccc" />
    <path
       sodipodi:nodetypes="ccccc"
       inkscape:connector-curvature="0"
       id="path6888"
       d="m 60.492648,40.011643 c 9.874901,-5.466874 20.992341,-8.341191 33.169646,-9.004162 l -1.08e-4,53.037457 -6.670223,1.864823 z"
       style="opacity:1;fill:#ffffff;fill-opacity:0.99516913;stroke-width:0.25862876" />
  </g>
  <g
     inkscape:groupmode="layer"
     id="layer6"
     inkscape:label="borderInner"
     style="display:inline"
     transform="translate(-16.933327,-27.65416)">
    <circle
       r="23.151041"
       cy="107.02916"
       cx="96.308327"
       id="circle883"
       style="display:inline;opacity:1;fill:#1a1a1a;fill-opacity:0.99516913;stroke-width:0.11692445" />
  </g>
  <g
     inkscape:groupmode="layer"
     id="layer5"
     inkscape:label="rings"
     style="display:inline"
     transform="translate(-16.933327,-27.65416)">
    <path
       style="opacity:1;fill:#1a1a1a;fill-opacity:0.99516913;stroke-width:0.26616222"
       d="M 93.662501,29.109334 V 97.51911 L 59.457871,38.274667 54.875205,40.9205 89.079836,100.16443 29.83539,65.959799 27.189557,70.54298 86.434003,104.74761 H 18.024226 v 5.29167 h 68.409777 l -59.244446,34.20463 2.645833,4.58266 59.244446,-34.20463 -34.204631,59.24445 4.582666,2.64583 34.20463,-59.24444 v 68.40977 h 5.291667 v -68.40977 l 34.204632,59.24444 4.58267,-2.64583 -34.20464,-59.24445 59.24445,34.20463 2.64583,-4.58266 -59.24392,-34.20463 h 68.40925 v -5.29167 H 106.18319 L 165.42711,70.54298 162.78128,65.959799 103.53735,100.16443 137.74147,40.9205 133.1588,38.274667 98.954168,97.51911 V 29.109334 Z"
       id="rect886"
       inkscape:connector-curvature="0" />
  </g>
  <g
     inkscape:groupmode="layer"
     id="layer2"
     inkscape:label="inner"
     style="display:inline"
     transform="translate(-16.933327,-27.65416)">
    <circle
       style="display:inline;opacity:1;fill:#ffffff;fill-opacity:0.99516913;stroke-width:0.10022095"
       id="path854"
       cx="96.308327"
       cy="107.02916"
       r="19.84375" />
  </g>
</svg>
