<?xml version="1.0" encoding="UTF-8" standalone="no"?>
<!-- Created with Inkscape (http://www.inkscape.org/) -->

<svg
   xmlns:dc="http://purl.org/dc/elements/1.1/"
   xmlns:cc="http://creativecommons.org/ns#"
   xmlns:rdf="http://www.w3.org/1999/02/22-rdf-syntax-ns#"
   xmlns:svg="http://www.w3.org/2000/svg"
   xmlns="http://www.w3.org/2000/svg"
   xmlns:sodipodi="http://sodipodi.sourceforge.net/DTD/sodipodi-0.dtd"
   xmlns:inkscape="http://www.inkscape.org/namespaces/inkscape"
   width="300"
   height="300.00003"
   viewBox="0 0 79.374998 79.37501"
   version="1.1"
   id="svg8"
   inkscape:version="0.92.5 (2060ec1f9f, 2020-04-08)"
   sodipodi:docname="moon.svg">
  <defs
     id="defs2" />
  <sodipodi:namedview
     id="base"
     pagecolor="#ffffff"
     bordercolor="#666666"
     borderopacity="1.0"
     inkscape:pageopacity="0.0"
     inkscape:pageshadow="2"
     inkscape:zoom="1"
     inkscape:cx="112"
     inkscape:cy="132.99997"
     inkscape:document-units="px"
     inkscape:current-layer="layer1"
     showgrid="false"
     inkscape:showpageshadow="false"
     showborder="false"
     units="px"
     inkscape:snap-intersection-paths="true"
     inkscape:snap-midpoints="false"
     inkscape:snap-smooth-nodes="true"
     inkscape:object-paths="true"
     inkscape:window-width="1848"
     inkscape:window-height="1016"
     inkscape:window-x="72"
     inkscape:window-y="27"
     inkscape:window-maximized="1"
     fit-margin-top="0"
     fit-margin-left="0"
     fit-margin-right="0"
     fit-margin-bottom="0" />
  <metadata
     id="metadata5">
    <rdf:RDF>
      <cc:Work
         rdf:about="">
        <dc:format>image/svg+xml</dc:format>
        <dc:type
           rdf:resource="http://purl.org/dc/dcmitype/StillImage" />
        <dc:title></dc:title>
      </cc:Work>
    </rdf:RDF>
  </metadata>
  <g
     inkscape:label="Layer 1"
     inkscape:groupmode="layer"
     id="layer1"
     transform="translate(-37.041666,-95.122895)">
    <path
       style="opacity:0.5;stroke-width:0.23897848"
       d="M 96.308332,136.39789 A 29.633333,29.633333 0 0 1 66.674999,166.03123 29.633333,29.633333 0 0 1 37.041666,136.39789 29.633333,29.633333 0 0 1 66.674999,106.76456 29.633333,29.633333 0 0 1 96.308332,136.39789 Z"
       id="path4523"
       inkscape:connector-curvature="0" />
    <path
       style="opacity:0.5;stroke-width:0.32006046;fill:#ffdd55"
       d="M 116.41667,134.8104 A 39.6875,39.6875 0 0 1 76.72917,174.4979 39.6875,39.6875 0 0 1 37.041666,134.8104 39.6875,39.6875 0 0 1 76.72917,95.122895 39.6875,39.6875 0 0 1 116.41667,134.8104 Z"
       id="path4518"
       inkscape:connector-curvature="0" />
    <path
       inkscape:connector-curvature="0"
       id="path4521"
       d="m 76.729166,126.60831 a 19.84375,19.84375 0 0 1 -19.84375,19.84375 19.84375,19.84375 0 0 1 -19.84375,-19.84375 19.84375,19.84375 0 0 1 19.84375,-19.84375 19.84375,19.84375 0 0 1 19.84375,19.84375 z"
       style="opacity:0.5;stroke-width:0.16003023" />
  </g>
</svg>
