<?xml version="1.0" encoding="UTF-8" standalone="no"?>
<!-- Created with Inkscape (http://www.inkscape.org/) -->

<svg
   xmlns:dc="http://purl.org/dc/elements/1.1/"
   xmlns:cc="http://creativecommons.org/ns#"
   xmlns:rdf="http://www.w3.org/1999/02/22-rdf-syntax-ns#"
   xmlns:svg="http://www.w3.org/2000/svg"
   xmlns="http://www.w3.org/2000/svg"
   xmlns:sodipodi="http://sodipodi.sourceforge.net/DTD/sodipodi-0.dtd"
   xmlns:inkscape="http://www.inkscape.org/namespaces/inkscape"
   width="523.53455"
   height="462.44922"
   viewBox="0 0 138.51851 122.35636"
   version="1.1"
   id="svg8"
   inkscape:version="0.92.5 (2060ec1f9f, 2020-04-08)"
   sodipodi:docname="team.svg">
  <defs
     id="defs2" />
  <sodipodi:namedview
     id="base"
     pagecolor="#ffffff"
     bordercolor="#666666"
     borderopacity="1.0"
     inkscape:pageopacity="0.0"
     inkscape:pageshadow="2"
     inkscape:zoom="1"
     inkscape:cx="63.720951"
     inkscape:cy="184.44909"
     inkscape:document-units="px"
     inkscape:current-layer="layer1"
     showgrid="false"
     inkscape:showpageshadow="false"
     showborder="false"
     units="px"
     inkscape:snap-intersection-paths="true"
     inkscape:snap-midpoints="false"
     inkscape:snap-smooth-nodes="true"
     inkscape:object-paths="true"
     inkscape:window-width="1848"
     inkscape:window-height="1016"
     inkscape:window-x="72"
     inkscape:window-y="27"
     inkscape:window-maximized="1"
     fit-margin-top="0"
     fit-margin-left="0"
     fit-margin-right="0"
     fit-margin-bottom="0" />
  <metadata
     id="metadata5">
    <rdf:RDF>
      <cc:Work
         rdf:about="">
        <dc:format>image/svg+xml</dc:format>
        <dc:type
           rdf:resource="http://purl.org/dc/dcmitype/StillImage" />
        <dc:title></dc:title>
      </cc:Work>
    </rdf:RDF>
  </metadata>
  <g
     inkscape:label="Layer 1"
     inkscape:groupmode="layer"
     id="layer1"
     transform="translate(20.166793,-65.754125)">
    <path
       style="opacity:1;fill:#808080;fill-opacity:0.99516913;stroke-width:1.11691976"
       d="M 18.175781,290.96875 A 73.043474,73.043474 0 0 0 -54.867188,364.01172 73.043474,73.043474 0 0 0 18.175781,437.05469 73.043474,73.043474 0 0 0 91.21875,364.01172 73.043474,73.043474 0 0 0 18.175781,290.96875 Z"
       transform="scale(0.26458333)"
       id="path7063"
       inkscape:connector-curvature="0" />
    <path
       style="opacity:1;fill:#0055d4;fill-opacity:0.99516913;stroke-width:1.11691976"
       d="m 18.474609,443.72461 c -20.7313243,-0.22413 -40.986211,9.96333 -63.298828,30.76562 -43.272975,40.34389 -29.216797,236.47852 -29.216797,236.47852 l 183.521486,-2.74023 c 0,0 17.0635,-198.45579 -29.218751,-236.47852 C 57.84375,453.33274 37.949493,443.93524 18.474609,443.72461 Z"
       transform="scale(0.26458333)"
       id="path7039"
       inkscape:connector-curvature="0" />
  </g>
  <g
     inkscape:groupmode="layer"
     id="layer7"
     inkscape:label="Layer 2"
     transform="translate(20.166793,-65.754125)">
    <path
       style="opacity:1;fill:#808080;fill-opacity:0.99516913;stroke-width:0.32366297"
       d="M 50.535416,65.754125 A 21.166666,21.166666 0 0 0 29.36875,86.920791 21.166666,21.166666 0 0 0 50.535416,108.08746 21.166666,21.166666 0 0 0 71.702082,86.920791 21.166666,21.166666 0 0 0 50.535416,65.754125 Z"
       id="path7067"
       inkscape:connector-curvature="0" />
    <path
       style="opacity:1;fill:#00ffff;fill-opacity:0.99516913;stroke-width:0.32366297"
       d="m 50.621716,110.02016 c -6.00756,-0.065 -11.876759,2.88709 -18.342549,8.91521 C 19.73945,130.6263 23.8125,187.46246 23.8125,187.46246 l 53.181249,-0.79375 c 0,0 4.945086,-57.5088 -8.466667,-68.52709 -6.496317,-5.33699 -12.2619,-8.06043 -17.905366,-8.12146 z"
       id="rect6975"
       inkscape:connector-curvature="0" />
  </g>
  <g
     inkscape:groupmode="layer"
     id="layer8"
     inkscape:label="Layer 3"
     transform="translate(20.166793,-65.754125)">
    <path
       style="opacity:1;fill:#808080;fill-opacity:0.99516913;stroke-width:0.28144604"
       d="M 94.569846,80.919456 A 18.405797,18.405797 0 0 0 76.164169,99.325122 18.405797,18.405797 0 0 0 94.569846,117.7308 18.405797,18.405797 0 0 0 112.97552,99.325122 18.405797,18.405797 0 0 0 94.569846,80.919456 Z"
       id="path7071"
       inkscape:connector-curvature="0" />
    <path
       style="opacity:1;fill:#5fbcd3;fill-opacity:0.99516913;stroke-width:0.28144604"
       d="m 94.645176,119.41151 c -5.223962,-0.0565 -10.327876,2.5106 -15.950296,7.75245 -10.904107,10.16602 -7.362171,59.58883 -7.362171,59.58883 l 46.244501,-0.6905 c 0,0 4.29974,-50.0077 -7.36266,-59.58883 -5.64897,-4.64085 -10.662009,-7.00887 -15.569374,-7.06195 z"
       id="path7039-7"
       inkscape:connector-curvature="0" />
  </g>
</svg>
