<?xml version="1.0" encoding="UTF-8" standalone="no"?>
<!-- Created with Inkscape (http://www.inkscape.org/) -->

<svg
   xmlns:dc="http://purl.org/dc/elements/1.1/"
   xmlns:cc="http://creativecommons.org/ns#"
   xmlns:rdf="http://www.w3.org/1999/02/22-rdf-syntax-ns#"
   xmlns:svg="http://www.w3.org/2000/svg"
   xmlns="http://www.w3.org/2000/svg"
   xmlns:sodipodi="http://sodipodi.sourceforge.net/DTD/sodipodi-0.dtd"
   xmlns:inkscape="http://www.inkscape.org/namespaces/inkscape"
   width="523.53455"
   height="462.44922"
   viewBox="0 0 138.51851 122.35636"
   version="1.1"
   id="svg8"
   inkscape:version="0.92.5 (2060ec1f9f, 2020-04-08)"
   sodipodi:docname="team.svg">
  <defs
     id="defs2" />
  <sodipodi:namedview
     id="base"
     pagecolor="#ffffff"
     bordercolor="#666666"
     borderopacity="1.0"
     inkscape:pageopacity="0.0"
     inkscape:pageshadow="2"
     inkscape:zoom="1"
     inkscape:cx="52.220951"
     inkscape:cy="184.44909"
     inkscape:document-units="px"
     inkscape:current-layer="layer1"
     showgrid="false"
     inkscape:showpageshadow="false"
     showborder="false"
     units="px"
     inkscape:snap-intersection-paths="true"
     inkscape:snap-midpoints="false"
     inkscape:snap-smooth-nodes="true"
     inkscape:object-paths="true"
     inkscape:window-width="1848"
     inkscape:window-height="1016"
     inkscape:window-x="72"
     inkscape:window-y="27"
     inkscape:window-maximized="1"
     fit-margin-top="0"
     fit-margin-left="0"
     fit-margin-right="0"
     fit-margin-bottom="0" />
  <metadata
     id="metadata5">
    <rdf:RDF>
      <cc:Work
         rdf:about="">
        <dc:format>image/svg+xml</dc:format>
        <dc:type
           rdf:resource="http://purl.org/dc/dcmitype/StillImage" />
        <dc:title></dc:title>
      </cc:Work>
    </rdf:RDF>
  </metadata>
  <g
     inkscape:label="Layer 1"
     inkscape:groupmode="layer"
     id="layer1"
     transform="translate(20.166793,-65.754125)">
    <path
       style="opacity:1;fill:#808080;fill-opacity:0.99516913;stroke-width:1.11691976"
       d="M 18.175781,290.96875 A 73.043474,73.043474 0 0 0 -54.867188,364.01172 73.043474,73.043474 0 0 0 18.175781,437.05469 73.043474,73.043474 0 0 0 91.21875,364.01172 73.043474,73.043474 0 0 0 18.175781,290.96875 Z"
       id="path7063"
       inkscape:connector-curvature="0"
       transform="scale(0.26458333)" />
    <path
       style="opacity:1;fill:#0055d4;fill-opacity:0.99516913;stroke-width:0.29551977"
       d="m 4.8880736,117.40214 c -5.48516285,-0.0593 -10.8442682,2.63616 -16.7478146,8.14015 -11.449308,10.67442 -7.730278,62.56887 -7.730278,62.56887 l 48.556726,-0.72502 c 0,0 4.514718,-52.5086 -7.730794,-62.56888 -5.931421,-4.87295 -11.19511,-7.3594 -16.3478394,-7.41512 z"
       id="path7039"
       inkscape:connector-curvature="0" />
  </g>
  <g
     inkscape:groupmode="layer"
     id="layer7"
     inkscape:label="Layer 2"
     transform="translate(20.166793,-65.754125)">
    <path
       style="opacity:1;fill:#808080;fill-opacity:0.99516913;stroke-width:0.32366297"
       d="M 50.535416,65.754125 A 21.166666,21.166666 0 0 0 29.36875,86.920791 21.166666,21.166666 0 0 0 50.535416,108.08746 21.166666,21.166666 0 0 0 71.702082,86.920791 21.166666,21.166666 0 0 0 50.535416,65.754125 Z"
       id="path7067"
       inkscape:connector-curvature="0" />
    <path
       style="opacity:1;fill:#00ffff;fill-opacity:0.99516913;stroke-width:0.32230589"
       d="m 50.621716,110.66817 c -6.00756,-0.0645 -11.876759,2.86293 -18.342549,8.84061 -12.539717,11.5931 -8.466667,67.95364 -8.466667,67.95364 l 53.181249,-0.78711 c 0,0 4.945086,-57.02755 -8.466667,-67.95364 -6.496317,-5.29233 -12.2619,-7.99298 -17.905366,-8.0535 z"
       id="rect6975"
       inkscape:connector-curvature="0" />
  </g>
  <g
     inkscape:groupmode="layer"
     id="layer8"
     inkscape:label="Layer 3"
     transform="translate(20.166793,-65.754125)">
    <path
       style="opacity:1;fill:#808080;fill-opacity:0.99516913;stroke-width:0.28144604"
       d="M 94.569846,80.919456 A 18.405797,18.405797 0 0 0 76.164169,99.325122 18.405797,18.405797 0 0 0 94.569846,117.7308 18.405797,18.405797 0 0 0 112.97552,99.325122 18.405797,18.405797 0 0 0 94.569846,80.919456 Z"
       id="path7071"
       inkscape:connector-curvature="0" />
    <path
       style="opacity:1;fill:#5fbcd3;fill-opacity:0.99516913;stroke-width:0.27860779"
       d="m 94.645176,120.76918 c -5.223962,-0.0554 -10.327876,2.46022 -15.950296,7.59688 -10.904107,9.96201 -7.362171,58.39304 -7.362171,58.39304 l 46.244501,-0.67665 c 0,0 4.29974,-49.00417 -7.36266,-58.39303 -5.64897,-4.54772 -10.662009,-6.86822 -15.569374,-6.92024 z"
       id="path7039-7"
       inkscape:connector-curvature="0" />
  </g>
</svg>
